<svg xmlns="http://www.w3.org/2000/svg" xmlns:xlink="http://www.w3.org/1999/xlink" width="100%" height="100%" version="1.1" viewBox="0 0 21 40" xml:space="preserve" style="fill-rule:evenodd;clip-rule:evenodd;stroke-linejoin:round;stroke-miterlimit:2"><g><g><g><path d="M70.1,36L56,36L56,28C56,23.872 56.336,21.272 62.252,21.272L69.724,21.272L69.724,8.552C66.088,8.176 62.432,7.992 58.772,8C47.92,8 40,14.628 40,26.796L40,36L28,36L28,52L40,51.996L40,88L56,88L56,51.988L68.264,51.984L70.1,36Z" transform="matrix(1,0,0,1,-937.995,-6629.73) matrix(0.955596,0,0,1.69433,97.3709,2738.35) matrix(0.521302,0,0,0.294013,865.089,2294.35)" style="fill:#fff;fill-rule:nonzero"/></g></g></g></svg>